<svg width="160" height="120" viewBox="0 0 160 120" xmlns="http://www.w3.org/2000/svg"><defs><pattern id="grid" width="20" height="20" patternUnits="userSpaceOnUse"><path d="M 20 0 L 0 0 0 20" fill="none" stroke="#eee" stroke-width="1"/></pattern></defs><rect width="160" height="120" fill="url(#grid)"/><line x1="0" y1="100" x2="160" y2="100" stroke="black" stroke-width="1.5"/><path d="M 60 100 A 56.57 56.57 0 0 1 116.57 100" fill="none" stroke="black" stroke-width="1"/><path d="M 3.43 100 A 56.57 56.57 0 0 1 60 100" fill="none" stroke="black" stroke-width="1"/><line x1="60" y1="100" x2="100" y2="100" stroke="blue" stroke-width="2"/><line x1="100" y1="100" x2="100" y2="60" stroke="blue" stroke-width="2"/><line x1="60" y1="100" x2="100" y2="60" stroke="red" stroke-width="2"/><text x="58" y="115" font-family="serif" font-size="10">2</text><text x="18" y="115" font-family="serif" font-size="10">0</text><text x="38" y="115" font-family="serif" font-size="10">1</text><text x="78" y="115" font-family="serif" font-size="10">3</text><text x="98" y="115" font-family="serif" font-size="10">4</text><text x="118" y="115" font-family="serif" font-size="10">5</text><text x="55" y="95" font-family="serif" font-size="10">A</text><text x="102" y="112" font-family="serif" font-size="10">B</text><text x="102" y="58" font-family="serif" font-size="10">C</text><text x="116" y="95" font-family="serif" font-size="10">P</text><text x="3" y="95" font-family="serif" font-size="10">Q</text></svg>