<?xml version="1.0" encoding="UTF-8"?><svg xmlns="http://www.w3.org/2000/svg" viewBox="0 0 840 480" width="840" height="480" preserveAspectRatio="xMidYMid meet" role="img" aria-labelledby="title desc" data-fact-hash="06facc52c33d151f92bea2cf86b40e9e11120293b40833d457687b503f47c217" data-scale-policy="EQUAL_SCALE_REQUIRED" data-axis-scale-mode="EQUAL_UNIT" data-geometry-style-version="AP_GEOMETRY_PRINT_V1_0_DRAFT" data-visual-provenance="independent-numeric-facts-current"><style>.axis{font:italic 13px serif;fill:#111827}.point{font:700 12px sans-serif}.coord{font:10px sans-serif;fill:#475569}.panel{font:700 16px sans-serif;fill:#0f172a}.note{font:12px sans-serif;fill:#334155}</style><title id="title">직선의 방정식 해설 도형 · 문항 22</title><desc id="desc">실제 점·직선·관계를 표시한 좌표 도형</desc><rect width="840" height="480" fill="#fff"/><text x="38" y="32" font-size="22" font-weight="700">직선의 방정식 해설 도형 · 문항 22</text><text x="38" y="55" font-size="12" fill="#475569">실제 좌표·직선식·핵심 관계를 수치로 표시</text><rect x="30" y="68" width="496" height="372" rx="12" fill="#fff" stroke="#cbd5e1"/><line x1="117.80" y1="76.00" x2="117.80" y2="432.00" stroke="#e5e7eb" stroke-width=".8"/><line x1="153.40" y1="76.00" x2="153.40" y2="432.00" stroke="#e5e7eb" stroke-width=".8"/><line x1="189.00" y1="76.00" x2="189.00" y2="432.00" stroke="#e5e7eb" stroke-width=".8"/><line x1="224.60" y1="76.00" x2="224.60" y2="432.00" stroke="#e5e7eb" stroke-width=".8"/><line x1="260.20" y1="76.00" x2="260.20" y2="432.00" stroke="#e5e7eb" stroke-width=".8"/><line x1="295.80" y1="76.00" x2="295.80" y2="432.00" stroke="#e5e7eb" stroke-width=".8"/><line x1="331.40" y1="76.00" x2="331.40" y2="432.00" stroke="#e5e7eb" stroke-width=".8"/><line x1="367.00" y1="76.00" x2="367.00" y2="432.00" stroke="#e5e7eb" stroke-width=".8"/><line x1="402.60" y1="76.00" x2="402.60" y2="432.00" stroke="#e5e7eb" stroke-width=".8"/><line x1="438.20" y1="76.00" x2="438.20" y2="432.00" stroke="#e5e7eb" stroke-width=".8"/><line x1="117.80" y1="432.00" x2="438.20" y2="432.00" stroke="#e5e7eb" stroke-width=".8"/><line x1="117.80" y1="396.40" x2="438.20" y2="396.40" stroke="#e5e7eb" stroke-width=".8"/><line x1="117.80" y1="360.80" x2="438.20" y2="360.80" stroke="#e5e7eb" stroke-width=".8"/><line x1="117.80" y1="325.20" x2="438.20" y2="325.20" stroke="#e5e7eb" stroke-width=".8"/><line x1="117.80" y1="289.60" x2="438.20" y2="289.60" stroke="#e5e7eb" stroke-width=".8"/><line x1="117.80" y1="254.00" x2="438.20" y2="254.00" stroke="#e5e7eb" stroke-width=".8"/><line x1="117.80" y1="218.40" x2="438.20" y2="218.40" stroke="#e5e7eb" stroke-width=".8"/><line x1="117.80" y1="182.80" x2="438.20" y2="182.80" stroke="#e5e7eb" stroke-width=".8"/><line x1="117.80" y1="147.20" x2="438.20" y2="147.20" stroke="#e5e7eb" stroke-width=".8"/><line x1="117.80" y1="111.60" x2="438.20" y2="111.60" stroke="#e5e7eb" stroke-width=".8"/><line x1="117.80" y1="76.00" x2="438.20" y2="76.00" stroke="#e5e7eb" stroke-width=".8"/><line data-geometry="axis-y" x1="331.40" y1="76.00" x2="331.40" y2="432.00" stroke="#111827" stroke-width="1.4"/><text x="338.40" y="91.00" class="axis">y</text><line data-geometry="axis-x" x1="117.80" y1="254.00" x2="438.20" y2="254.00" stroke="#111827" stroke-width="1.4"/><text x="433.20" y="246.00" text-anchor="end" class="axis">x</text><line data-geometry="line" data-a="3" data-b="-9" data-c="4" data-model-x1="-6" data-model-y1="-1.5555555555555556" data-model-x2="3" data-model-y2="1.4444444444444444" data-equation="3x−9y+4=0" x1="117.80" y1="309.38" x2="438.20" y2="202.58" stroke="#2563eb" stroke-width="2.2" stroke-linecap="round"/><line data-geometry="line" data-a="1" data-b="3" data-c="9" data-model-x1="-6" data-model-y1="-1" data-model-x2="3" data-model-y2="-4" data-equation="1x+3y+9=0" x1="117.80" y1="289.60" x2="438.20" y2="396.40" stroke="#16a34a" stroke-width="2.2" stroke-linecap="round"/><g data-point-label="P" data-point-x="-4" data-point-y="3"><circle cx="189.00" cy="147.20" r="4.2" fill="#dc2626" stroke="#fff" stroke-width="1.4"/><text x="196.00" y="140.20" class="point" fill="#dc2626">P</text><text x="196.00" y="161.20" class="coord">(-4, 3)</text></g><rect x="548" y="76" width="254" height="356" rx="12" fill="#f8fafc" stroke="#cbd5e1"/><text x="566" y="108" class="panel">핵심 수치</text><text x="566" y="133" class="note">주어진 기울기=1/3</text><text x="566" y="155" class="note">수직 기울기=−3, y=−3x−9</text><text x="38" y="462" font-size="11" fill="#64748b">축척: x,y 동일 단위 · 실제 계산값 기반</text></svg>
