<svg xmlns="http://www.w3.org/2000/svg" viewBox="0 0 720 360" width="720" height="360" role="img" data-fact-hash="b3b0b4693613f9cf3040cac18f9d3fdb5facf0a613e490d90d13afb603394359" data-scale-policy="EQUAL_SCALE_REQUIRED"><title>평면좌표 해설 도형 · 문항 25</title><desc>평면좌표 문항 25의 핵심 관계를 표시한 해설 도형</desc><defs><marker id="arrow" markerWidth="8" markerHeight="8" refX="7" refY="4" orient="auto"><path d="M0 0 8 4 0 8z" fill="#2563eb"/></marker></defs><rect width="720" height="360" rx="18" fill="#f8fafc"/><text x="32" y="38" font-family="Arial,sans-serif" font-size="20" font-weight="700" fill="#0f172a">평면좌표 해설 도형 · 문항 25</text><text x="32" y="64" font-family="Arial,sans-serif" font-size="12" fill="#475569">풀이에 필요한 점·도형·관계를 좌표평면에 표시한 해설 자료</text><rect x="42" y="78" width="636" height="256" rx="14" fill="#ffffff" stroke="#cbd5e1"/><line x1="254.62" y1="92.0" x2="254.62" y2="316.0" stroke="#e2e8f0" stroke-width="1"/><line x1="284.73" y1="92.0" x2="284.73" y2="316.0" stroke="#e2e8f0" stroke-width="1"/><line x1="314.84" y1="92.0" x2="314.84" y2="316.0" stroke="#e2e8f0" stroke-width="1"/><line x1="344.95" y1="92.0" x2="344.95" y2="316.0" stroke="#e2e8f0" stroke-width="1"/><line x1="375.05" y1="92.0" x2="375.05" y2="316.0" stroke="#e2e8f0" stroke-width="1"/><line x1="405.16" y1="92.0" x2="405.16" y2="316.0" stroke="#e2e8f0" stroke-width="1"/><line x1="435.27" y1="92.0" x2="435.27" y2="316.0" stroke="#e2e8f0" stroke-width="1"/><line x1="465.38" y1="92.0" x2="465.38" y2="316.0" stroke="#e2e8f0" stroke-width="1"/><line x1="248.0" y1="309.38" x2="472.0" y2="309.38" stroke="#e2e8f0" stroke-width="1"/><line x1="248.0" y1="279.27" x2="472.0" y2="279.27" stroke="#e2e8f0" stroke-width="1"/><line x1="248.0" y1="249.16" x2="472.0" y2="249.16" stroke="#e2e8f0" stroke-width="1"/><line x1="248.0" y1="219.05" x2="472.0" y2="219.05" stroke="#e2e8f0" stroke-width="1"/><line x1="248.0" y1="188.95" x2="472.0" y2="188.95" stroke="#e2e8f0" stroke-width="1"/><line x1="248.0" y1="158.84" x2="472.0" y2="158.84" stroke="#e2e8f0" stroke-width="1"/><line x1="248.0" y1="128.73" x2="472.0" y2="128.73" stroke="#e2e8f0" stroke-width="1"/><line x1="248.0" y1="98.62" x2="472.0" y2="98.62" stroke="#e2e8f0" stroke-width="1"/><line x1="254.62" y1="92.0" x2="254.62" y2="316.0" stroke="#334155" stroke-width="1.8"/><text x="262.62" y="107.00" font-size="12" fill="#334155">y</text><line data-geometry="segment" x1="344.95" y1="158.84" x2="375.05" y2="249.16" stroke="#2563eb" stroke-width="2.5"/><g data-point-label="A" data-point-x="3" data-point-y="6" data-point-provenance="legacy-reviewed-fact"><circle cx="344.95" cy="158.84" r="5.5" fill="#ef4444" stroke="#ffffff" stroke-width="2"/><text x="353.95" y="150.84" font-size="12" font-weight="700" fill="#b91c1c">A</text><text x="353.95" y="174.84" font-size="10" fill="#475569">(3, 6)</text></g><g data-point-label="G" data-point-x="4" data-point-y="3" data-point-provenance="legacy-reviewed-fact"><circle cx="375.05" cy="249.16" r="5.5" fill="#ef4444" stroke="#ffffff" stroke-width="2"/><text x="384.05" y="241.16" font-size="12" font-weight="700" fill="#b91c1c">G</text><text x="384.05" y="265.16" font-size="10" fill="#475569">(4, 3)</text></g><g data-point-label="D" data-point-x="2" data-point-y="4" data-point-provenance="legacy-reviewed-fact"><circle cx="314.84" cy="219.05" r="5.5" fill="#ef4444" stroke="#ffffff" stroke-width="2"/><text x="323.84" y="211.05" font-size="12" font-weight="700" fill="#b91c1c">D</text><text x="323.84" y="235.05" font-size="10" fill="#475569">(2, 4)</text></g><g data-point-label="E" data-point-x="5" data-point-y="5" data-point-provenance="legacy-reviewed-fact"><circle cx="405.16" cy="188.95" r="5.5" fill="#ef4444" stroke="#ffffff" stroke-width="2"/><text x="414.16" y="180.95" font-size="12" font-weight="700" fill="#b91c1c">E</text><text x="414.16" y="204.95" font-size="10" fill="#475569">(5, 5)</text></g><text x="32" y="344" font-family="Arial,sans-serif" font-size="11" fill="#64748b">풀이 관찰: 무게중심과 접기 수직이등분선</text></svg>
