<svg xmlns="http://www.w3.org/2000/svg" viewBox="0 0 940 480" width="940" height="480" preserveAspectRatio="xMidYMid meet" role="img" data-geometry-mode="COORDINATE_GEOMETRY_HYBRID" data-geometry-style-version="AP_GRAPH_PRINT_V1_1_DRAFT" data-geometry-preset="GEOMETRY_STANDARD" data-axis-scale-mode="EQUAL_UNIT" data-fact-hash="16d3890016d3890016d3890016d3890016d3890016d3890016d3890016d38900" data-visual-provenance="deterministic-python-independent-facts"><title>도형의 이동 해설 도형 · 문항 6</title><desc>실제 좌표·변환·대응관계를 계산값으로 표시한 해설 도형</desc><defs><marker id="arrow" markerWidth="8" markerHeight="8" refX="7" refY="4" orient="auto"><path d="M0 0 8 4 0 8z" fill="#64748b"/></marker></defs><style>.label{font:11px "STIX Two Math","Malgun Gothic",serif;font-weight:600}.note{font:11px "Noto Sans KR","Malgun Gothic",sans-serif;fill:#374151}.heading{font:700 16px "Noto Sans KR","Malgun Gothic",sans-serif;fill:#111827}</style><rect width="940" height="480" fill="#fff"/><text x="32" y="34" class="heading">도형의 이동 해설 도형 · 문항 6</text><text x="32" y="54" class="note">실제 수치·좌표·변환 순서를 표시한 해설 자료</text><rect x="30" y="66" width="530" height="370" rx="12" fill="#fff" stroke="#cbd5e1"/><line x1="138.77" y1="78" x2="138.77" y2="423" stroke="#e5e7eb" stroke-width=".8"/><line x1="165.31" y1="78" x2="165.31" y2="423" stroke="#e5e7eb" stroke-width=".8"/><line x1="191.85" y1="78" x2="191.85" y2="423" stroke="#e5e7eb" stroke-width=".8"/><line x1="218.38" y1="78" x2="218.38" y2="423" stroke="#e5e7eb" stroke-width=".8"/><line x1="244.92" y1="78" x2="244.92" y2="423" stroke="#e5e7eb" stroke-width=".8"/><line x1="271.46" y1="78" x2="271.46" y2="423" stroke="#e5e7eb" stroke-width=".8"/><line x1="298.00" y1="78" x2="298.00" y2="423" stroke="#e5e7eb" stroke-width=".8"/><line x1="324.54" y1="78" x2="324.54" y2="423" stroke="#e5e7eb" stroke-width=".8"/><line x1="351.08" y1="78" x2="351.08" y2="423" stroke="#e5e7eb" stroke-width=".8"/><line x1="377.62" y1="78" x2="377.62" y2="423" stroke="#e5e7eb" stroke-width=".8"/><line x1="404.15" y1="78" x2="404.15" y2="423" stroke="#e5e7eb" stroke-width=".8"/><line x1="430.69" y1="78" x2="430.69" y2="423" stroke="#e5e7eb" stroke-width=".8"/><line x1="457.23" y1="78" x2="457.23" y2="423" stroke="#e5e7eb" stroke-width=".8"/><line x1="48" y1="423.00" x2="548" y2="423.00" stroke="#e5e7eb" stroke-width=".8"/><line x1="48" y1="396.46" x2="548" y2="396.46" stroke="#e5e7eb" stroke-width=".8"/><line x1="48" y1="369.92" x2="548" y2="369.92" stroke="#e5e7eb" stroke-width=".8"/><line x1="48" y1="343.38" x2="548" y2="343.38" stroke="#e5e7eb" stroke-width=".8"/><line x1="48" y1="316.85" x2="548" y2="316.85" stroke="#e5e7eb" stroke-width=".8"/><line x1="48" y1="290.31" x2="548" y2="290.31" stroke="#e5e7eb" stroke-width=".8"/><line x1="48" y1="263.77" x2="548" y2="263.77" stroke="#e5e7eb" stroke-width=".8"/><line x1="48" y1="237.23" x2="548" y2="237.23" stroke="#e5e7eb" stroke-width=".8"/><line x1="48" y1="210.69" x2="548" y2="210.69" stroke="#e5e7eb" stroke-width=".8"/><line x1="48" y1="184.15" x2="548" y2="184.15" stroke="#e5e7eb" stroke-width=".8"/><line x1="48" y1="157.62" x2="548" y2="157.62" stroke="#e5e7eb" stroke-width=".8"/><line x1="48" y1="131.08" x2="548" y2="131.08" stroke="#e5e7eb" stroke-width=".8"/><line x1="48" y1="104.54" x2="548" y2="104.54" stroke="#e5e7eb" stroke-width=".8"/><line x1="48" y1="78.00" x2="548" y2="78.00" stroke="#e5e7eb" stroke-width=".8"/><line x1="244.92307692307693" y1="78" x2="244.92307692307693" y2="423" stroke="#111827" stroke-width="1.35"/><line x1="48" y1="290.3076923076923" x2="548" y2="290.3076923076923" stroke="#111827" stroke-width="1.35"/><line data-geometry="line" data-equation="1x+-1y+0=0" x1="138.77" y1="396.46" x2="457.23" y2="78.00" stroke="#dc2626" stroke-width="2.25" stroke-dasharray="7 5"/><text x="146.76923076923077" y="72" class="label" fill="#dc2626">y=x</text><line data-geometry="transform-arrow" x1="377.61538461538464" y1="263.7692307692308" x2="430.69230769230774" y2="343.3846153846154" stroke="#64748b" stroke-width="2" marker-end="url(#arrow)"/><text x="410.1538461538462" y="297.5769230769231" class="label" fill="#64748b">(2,−3)</text><line data-geometry="transform-arrow" x1="430.69230769230774" y1="343.3846153846154" x2="191.84615384615387" y2="104.53846153846155" stroke="#16a34a" stroke-width="2" marker-end="url(#arrow)"/><text x="317.26923076923083" y="217.96153846153848" class="label" fill="#16a34a">y=x 대칭</text><g data-point-label="P" data-point-x="5" data-point-y="1"><circle cx="377.61538461538464" cy="263.7692307692308" r="4.6" fill="#dc2626" stroke="#fff" stroke-width="1.5"/><text x="384.61538461538464" y="256.7692307692308" class="label" fill="#dc2626">P (5,1)</text></g><g data-point-label="중간" data-point-x="7" data-point-y="-2"><circle cx="430.69230769230774" cy="343.3846153846154" r="4.6" fill="#7c3aed" stroke="#fff" stroke-width="1.5"/><text x="437.69230769230774" y="336.3846153846154" class="label" fill="#7c3aed">중간 (7,-2)</text></g><g data-point-label="P′" data-point-x="-2" data-point-y="7"><circle cx="191.84615384615387" cy="104.53846153846155" r="4.6" fill="#16a34a" stroke="#fff" stroke-width="1.5"/><text x="198.84615384615387" y="97.53846153846155" class="label" fill="#16a34a">P′ (-2,7)</text></g><rect x="580" y="66" width="330" height="370" rx="12" fill="#f8fafc" stroke="#dbe3ef"/><text x="600" y="92" class="heading">핵심 수치와 관계</text><text x="592" y="118" class="note">현재 production content 기준 P=(5,1)</text><text x="592" y="140" class="note">평행이동 (a,−3), a=2</text><text x="592" y="162" class="note">중간점 (7,−2)</text><text x="592" y="184" class="note">y=x 대칭 후 (−2,7)=(b,7)</text></svg>
