<svg xmlns="http://www.w3.org/2000/svg" viewBox="0 0 720 360" width="720" height="360" role="img" data-fact-hash="586251450f5c466247d87696bc30cfb79a41bbbf8de48c3adf86f63cd48710dc" data-scale-policy="EQUAL_SCALE_REQUIRED"><title>도형의 이동 해설 도형 · 문항 16</title><desc>도형의 이동 문항 16의 독립 풀이 사실 기반 해설 도형</desc><defs><marker id="arrow" markerWidth="8" markerHeight="8" refX="7" refY="4" orient="auto"><path d="M0 0 8 4 0 8z" fill="#2563eb"/></marker></defs><rect width="720" height="360" rx="18" fill="#f8fafc"/><text x="32" y="38" font-family="Arial,sans-serif" font-size="20" font-weight="700" fill="#0f172a">도형의 이동 해설 도형 · 문항 16</text><text x="32" y="64" font-family="Arial,sans-serif" font-size="12" fill="#475569">독립 풀이에서 확정한 점·도형·관계를 좌표평면에 표시한 해설 자료</text><rect x="42" y="78" width="636" height="256" rx="14" fill="#ffffff" stroke="#cbd5e1"/><line x1="257.75" y1="92.0" x2="257.75" y2="316.0" stroke="#e2e8f0" stroke-width="1"/><line x1="273.48" y1="92.0" x2="273.48" y2="316.0" stroke="#e2e8f0" stroke-width="1"/><line x1="289.21" y1="92.0" x2="289.21" y2="316.0" stroke="#e2e8f0" stroke-width="1"/><line x1="304.94" y1="92.0" x2="304.94" y2="316.0" stroke="#e2e8f0" stroke-width="1"/><line x1="320.67" y1="92.0" x2="320.67" y2="316.0" stroke="#e2e8f0" stroke-width="1"/><line x1="336.40" y1="92.0" x2="336.40" y2="316.0" stroke="#e2e8f0" stroke-width="1"/><line x1="352.13" y1="92.0" x2="352.13" y2="316.0" stroke="#e2e8f0" stroke-width="1"/><line x1="367.87" y1="92.0" x2="367.87" y2="316.0" stroke="#e2e8f0" stroke-width="1"/><line x1="383.60" y1="92.0" x2="383.60" y2="316.0" stroke="#e2e8f0" stroke-width="1"/><line x1="399.33" y1="92.0" x2="399.33" y2="316.0" stroke="#e2e8f0" stroke-width="1"/><line x1="415.06" y1="92.0" x2="415.06" y2="316.0" stroke="#e2e8f0" stroke-width="1"/><line x1="430.79" y1="92.0" x2="430.79" y2="316.0" stroke="#e2e8f0" stroke-width="1"/><line x1="446.52" y1="92.0" x2="446.52" y2="316.0" stroke="#e2e8f0" stroke-width="1"/><line x1="462.25" y1="92.0" x2="462.25" y2="316.0" stroke="#e2e8f0" stroke-width="1"/><line x1="248.0" y1="314.11" x2="472.0" y2="314.11" stroke="#e2e8f0" stroke-width="1"/><line x1="248.0" y1="298.38" x2="472.0" y2="298.38" stroke="#e2e8f0" stroke-width="1"/><line x1="248.0" y1="282.65" x2="472.0" y2="282.65" stroke="#e2e8f0" stroke-width="1"/><line x1="248.0" y1="266.92" x2="472.0" y2="266.92" stroke="#e2e8f0" stroke-width="1"/><line x1="248.0" y1="251.19" x2="472.0" y2="251.19" stroke="#e2e8f0" stroke-width="1"/><line x1="248.0" y1="235.46" x2="472.0" y2="235.46" stroke="#e2e8f0" stroke-width="1"/><line x1="248.0" y1="219.73" x2="472.0" y2="219.73" stroke="#e2e8f0" stroke-width="1"/><line x1="248.0" y1="204.00" x2="472.0" y2="204.00" stroke="#e2e8f0" stroke-width="1"/><line x1="248.0" y1="188.27" x2="472.0" y2="188.27" stroke="#e2e8f0" stroke-width="1"/><line x1="248.0" y1="172.54" x2="472.0" y2="172.54" stroke="#e2e8f0" stroke-width="1"/><line x1="248.0" y1="156.81" x2="472.0" y2="156.81" stroke="#e2e8f0" stroke-width="1"/><line x1="248.0" y1="141.08" x2="472.0" y2="141.08" stroke="#e2e8f0" stroke-width="1"/><line x1="248.0" y1="125.35" x2="472.0" y2="125.35" stroke="#e2e8f0" stroke-width="1"/><line x1="248.0" y1="109.62" x2="472.0" y2="109.62" stroke="#e2e8f0" stroke-width="1"/><line x1="248.0" y1="93.89" x2="472.0" y2="93.89" stroke="#e2e8f0" stroke-width="1"/><line x1="304.94" y1="92.0" x2="304.94" y2="316.0" stroke="#334155" stroke-width="1.8"/><text x="312.94" y="107.00" font-size="12" fill="#334155">y</text><line x1="248.0" y1="204.00" x2="472.0" y2="204.00" stroke="#334155" stroke-width="1.8"/><text x="464.00" y="196.00" text-anchor="end" font-size="12" fill="#334155">x</text><line data-geometry="segment" x1="430.79" y1="251.19" x2="289.21" y2="156.81" stroke="#2563eb" stroke-width="2.5" marker-end="url(#arrow)"/><g data-point-label="P1" data-point-x="8" data-point-y="-3"><circle cx="430.79" cy="251.19" r="5.5" fill="#ef4444" stroke="#ffffff" stroke-width="2"/><text x="439.79" y="243.19" font-size="12" font-weight="700" fill="#b91c1c">P1</text><text x="439.79" y="267.19" font-size="10" fill="#475569">(8, -3)</text></g><g data-point-label="P2" data-point-x="-1" data-point-y="3"><circle cx="289.21" cy="156.81" r="5.5" fill="#ef4444" stroke="#ffffff" stroke-width="2"/><text x="298.21" y="148.81" font-size="12" font-weight="700" fill="#b91c1c">P2</text><text x="298.21" y="172.81" font-size="10" fill="#475569">(-1, 3)</text></g><text x="32" y="344" font-family="Arial,sans-serif" font-size="11" fill="#64748b">독립 풀이 방식: 두 원의 변환된 중심을 구하고 중심 거리 d와 두 반지름으로 두 원 위 점 사이 최대·최소 거리를 계산한다.</text></svg>
